<?xml version="1.0" encoding="utf-8"?>
<!-- Generator: Adobe Illustrator 25.4.1, SVG Export Plug-In . SVG Version: 6.00 Build 0)  -->
<svg version="1.1" xmlns="http://www.w3.org/2000/svg" xmlns:xlink="http://www.w3.org/1999/xlink" x="0px" y="0px"
	 viewBox="0 0 500 500" style="enable-background:new 0 0 500 500;" xml:space="preserve">
<style type="text/css">
	.st0{fill:#fff;}
</style>
<g id="Layer_1">
	<path class="st0" d="M199.89,439.65h100.59c4.54,0,9.09-0.22,13.62-0.67c4.53-0.45,9.02-1.12,13.49-2
		c4.47-0.89,8.88-1.99,13.23-3.31c4.36-1.32,8.64-2.86,12.85-4.59c4.21-1.75,8.31-3.69,12.33-5.83c4.01-2.14,7.92-4.48,11.7-7.01
		c3.79-2.53,7.44-5.23,10.96-8.13c3.52-2.89,6.89-5.94,10.1-9.16c3.22-3.22,6.28-6.59,9.17-10.1c2.89-3.52,5.59-7.17,8.12-10.96
		c2.53-3.79,4.87-7.68,7.01-11.7c2.14-4.01,4.1-8.13,5.83-12.33c1.74-4.21,3.27-8.49,4.59-12.85c1.32-4.36,2.43-8.77,3.31-13.23
		c0.88-4.46,1.55-8.96,2-13.49c0.45-4.53,0.67-9.08,0.67-13.63V200.08c0-4.55-0.22-9.1-0.67-13.63c-0.45-4.52-1.12-9.02-2-13.49
		c-0.88-4.46-1.99-8.87-3.31-13.23c-1.32-4.35-2.86-8.64-4.59-12.84c-1.74-4.21-3.69-8.32-5.83-12.34s-4.48-7.91-7.01-11.7
		c-2.53-3.78-5.23-7.43-8.12-10.96c-2.89-3.52-5.95-6.88-9.17-10.1c-3.21-3.22-6.59-6.27-10.1-9.16c-3.52-2.89-7.16-5.6-10.96-8.13
		c-3.78-2.53-7.68-4.87-11.7-7.01c-4.01-2.14-8.12-4.09-12.33-5.82c-4.21-1.75-8.49-3.28-12.85-4.6c-4.35-1.32-8.76-2.42-13.23-3.31
		c-4.46-0.88-8.95-1.55-13.49-2s-9.08-0.66-13.62-0.66H199.89c-4.55,0-9.09,0.21-13.62,0.66c-4.53,0.45-9.02,1.12-13.5,2
		c-4.46,0.89-8.87,1.99-13.23,3.31c-4.35,1.32-8.63,2.86-12.84,4.6c-4.21,1.74-8.31,3.68-12.33,5.82c-4.01,2.14-7.92,4.48-11.7,7.01
		c-3.79,2.53-7.44,5.24-10.96,8.13c-3.53,2.89-6.89,5.94-10.11,9.16c-3.21,3.22-6.27,6.59-9.16,10.1c-2.89,3.53-5.6,7.17-8.12,10.96
		c-2.53,3.79-4.87,7.68-7.01,11.7c-2.14,4.01-4.1,8.13-5.83,12.34c-1.75,4.2-3.27,8.49-4.59,12.84c-1.32,4.36-2.43,8.77-3.31,13.23
		c-0.89,4.46-1.55,8.96-2,13.49c-0.45,4.53-0.67,9.08-0.67,13.63v100.58c0,4.55,0.22,9.1,0.67,13.63c0.45,4.52,1.11,9.02,2,13.49
		c0.88,4.46,1.99,8.87,3.31,13.23c1.32,4.36,2.85,8.64,4.59,12.85c1.74,4.2,3.69,8.31,5.83,12.33c2.14,4.01,4.48,7.91,7.01,11.7
		c2.52,3.78,5.23,7.44,8.12,10.96c2.89,3.52,5.95,6.88,9.16,10.1c3.22,3.22,6.59,6.27,10.11,9.16c3.52,2.9,7.16,5.6,10.96,8.13
		c3.78,2.53,7.68,4.87,11.7,7.01c4.01,2.14,8.12,4.09,12.33,5.83c4.21,1.74,8.49,3.27,12.84,4.59c4.36,1.32,8.77,2.42,13.23,3.31
		c4.47,0.88,8.96,1.55,13.5,2C190.8,439.43,195.33,439.65,199.89,439.65z M254.98,142.22c32.79,1.76,89.84,29.34,89.84,97.41v98.62
		c0,1.33-0.13,2.65-0.39,3.96c-0.26,1.3-0.65,2.57-1.16,3.8c-0.51,1.23-1.14,2.4-1.87,3.51c-0.74,1.11-1.59,2.13-2.53,3.07
		c-0.93,0.95-1.96,1.79-3.07,2.53c-1.11,0.73-2.28,1.36-3.51,1.87c-1.23,0.51-2.5,0.89-3.8,1.15c-1.31,0.26-2.63,0.4-3.96,0.4
		h-13.52c-1.33,0-2.65-0.13-3.95-0.4c-1.31-0.25-2.57-0.64-3.8-1.15c-1.24-0.51-2.4-1.14-3.51-1.87c-1.11-0.74-2.13-1.59-3.08-2.53
		c-0.93-0.93-1.78-1.96-2.52-3.07c-0.74-1.11-1.36-2.28-1.87-3.51c-0.52-1.23-0.89-2.5-1.16-3.8c-0.25-1.31-0.39-2.63-0.39-3.96
		v-99.97c0.03-2.49-0.15-4.96-0.56-7.41c-0.41-2.45-1.03-4.85-1.87-7.19c-0.83-2.35-1.87-4.59-3.11-6.75
		c-1.25-2.15-2.67-4.18-4.28-6.08s-3.36-3.64-5.28-5.21c-1.91-1.59-3.95-2.98-6.13-4.2c-2.16-1.21-4.43-2.23-6.78-3.04
		c-2.35-0.8-4.76-1.39-7.22-1.77c-2.51-0.35-5.04-0.45-7.57-0.32c-2.53,0.13-5.03,0.51-7.5,1.11c-2.46,0.6-4.85,1.43-7.16,2.48
		c-2.31,1.05-4.5,2.31-6.58,3.77c-2.07,1.46-3.99,3.11-5.75,4.93c-1.77,1.82-3.35,3.79-4.75,5.91c-1.39,2.12-2.58,4.35-3.56,6.7
		c-0.98,2.34-1.73,4.75-2.26,7.24c-0.52,2.48-0.8,4.99-0.86,7.53c-0.05,2.54,0.13,5.05,0.56,7.56c0.42,2.5,1.07,4.94,1.94,7.33
		c0.88,2.38,1.97,4.65,3.28,6.83c1.31,2.17,2.8,4.21,4.49,6.11c1.69,1.89,3.54,3.62,5.55,5.16s4.16,2.9,6.41,4.03
		c2.27,1.15,4.62,2.07,7.05,2.77c1.62,0.44,3.12,1.12,4.51,2.04c1.38,0.92,2.59,2.04,3.62,3.36c1.03,1.31,1.81,2.75,2.37,4.33
		c0.55,1.58,0.84,3.2,0.86,4.87v24.47c0,1.1-0.11,2.2-0.35,3.27c-0.22,1.08-0.58,2.11-1.04,3.11c-0.46,1.01-1.03,1.94-1.69,2.83
		c-0.67,0.87-1.42,1.67-2.27,2.38c-0.84,0.71-1.75,1.33-2.72,1.84c-0.98,0.52-1.99,0.91-3.06,1.21c-1.07,0.28-2.14,0.46-3.24,0.51
		c-1.11,0.05-2.2-0.02-3.28-0.2c-2.94-0.54-5.83-1.21-8.7-2.01s-5.69-1.75-8.47-2.83c-2.78-1.07-5.5-2.28-8.17-3.61
		c-2.66-1.33-5.25-2.78-7.78-4.36c-2.53-1.58-4.98-3.26-7.35-5.07c-2.37-1.81-4.64-3.72-6.83-5.74c-2.18-2.02-4.28-4.15-6.26-6.36
		c-1.99-2.23-3.86-4.53-5.64-6.93c-1.77-2.39-3.41-4.87-4.95-7.42c-1.53-2.55-2.95-5.17-4.24-7.86c-1.29-2.69-2.45-5.43-3.48-8.22
		c-1.03-2.8-1.92-5.64-2.68-8.52c-0.76-2.89-1.38-5.79-1.87-8.73c-0.49-2.94-0.83-5.89-1.05-8.86c-0.2-2.98-0.27-5.96-0.19-8.93
		c0.07-2.98,0.28-5.95,0.64-8.9s0.84-5.88,1.47-8.8c0.63-2.91,1.4-5.78,2.3-8.63c0.9-2.84,1.94-5.62,3.11-8.36
		c1.16-2.74,2.46-5.43,3.87-8.04c1.42-2.62,2.96-5.17,4.62-7.64c1.66-2.48,3.42-4.87,5.32-7.17c1.88-2.31,3.87-4.51,5.97-6.64
		c2.09-2.11,4.29-4.13,6.57-6.05c2.29-1.91,4.65-3.71,7.11-5.4c2.45-1.69,4.98-3.25,7.58-4.71s5.27-2.77,8-3.97
		c2.72-1.2,5.51-2.26,8.33-3.2c2.83-0.93,5.69-1.73,8.6-2.4c2.91-0.66,5.83-1.19,8.78-1.58c2.96-0.39,5.92-0.64,8.9-0.74
		C249.03,142.01,252.01,142.05,254.98,142.22z"/>
</g>
<g id="Layer_2">
</g>
</svg>
